<svg width="255" height="66" viewBox="0 0 255 66" fill="none" xmlns="http://www.w3.org/2000/svg">
<path d="M88.3541 19.4062L83.9068 45H79.7408L84.1705 19.4062H88.3541ZM100.87 19.4062L90.3755 31.8516L84.2935 38.1621V33.3633L88.565 28.1953L95.5963 19.4062H100.87ZM91.8521 45L87.5806 32.7305L90.815 29.8301L96.5455 45H91.8521ZM119.898 19.4062L115.451 45H111.373L105.941 26.6484L102.76 45H98.5761L103.006 19.4062H107.084L112.551 37.7754L115.75 19.4062H119.898ZM135.57 19.4062H139.736L136.712 37.1602C136.49 38.8242 135.986 40.2832 135.2 41.5371C134.427 42.7793 133.402 43.7402 132.124 44.4199C130.847 45.0879 129.347 45.4043 127.624 45.3691C125.984 45.334 124.624 44.9707 123.546 44.2793C122.48 43.5762 121.718 42.6152 121.261 41.3965C120.804 40.1777 120.663 38.7715 120.839 37.1777L123.863 19.4062H128.011L125.023 37.1953C124.929 38.0156 124.935 38.7715 125.04 39.4629C125.146 40.1426 125.421 40.6934 125.866 41.1152C126.312 41.5254 127.003 41.748 127.941 41.7832C128.925 41.8184 129.734 41.6426 130.366 41.2559C130.999 40.8691 131.491 40.3242 131.843 39.6211C132.195 38.9062 132.435 38.0977 132.564 37.1953L135.57 19.4062ZM143.612 19.4062L150.889 19.4238C152.413 19.4707 153.678 19.8105 154.686 20.4434C155.706 21.0645 156.45 21.9316 156.919 23.0449C157.399 24.1582 157.575 25.4707 157.446 26.9824C157.34 28.2246 157.053 29.3262 156.585 30.2871C156.116 31.2363 155.477 32.0625 154.669 32.7656C153.86 33.457 152.893 34.0371 151.768 34.5059L150.415 35.1738H143.858L144.456 31.5879L148.727 31.623C149.606 31.6113 150.362 31.4121 150.995 31.0254C151.639 30.6387 152.155 30.1113 152.542 29.4434C152.928 28.7754 153.169 28.0254 153.262 27.1934C153.356 26.5137 153.35 25.8633 153.245 25.2422C153.151 24.6094 152.905 24.0879 152.506 23.6777C152.12 23.2676 151.528 23.0449 150.731 23.0098L147.18 22.9922L143.348 45H139.182L143.612 19.4062ZM150.854 45L148.112 33.5039L152.278 33.4863L155.301 44.7539V45H150.854ZM177.16 30.1113L176.492 34.4355C176.281 35.8535 175.924 37.2246 175.42 38.5488C174.928 39.8613 174.266 41.0391 173.434 42.082C172.613 43.1133 171.605 43.9277 170.41 44.5254C169.215 45.1113 167.82 45.3867 166.227 45.3516C164.715 45.3164 163.461 44.9824 162.465 44.3496C161.48 43.7051 160.719 42.8613 160.18 41.8184C159.641 40.7637 159.295 39.6035 159.143 38.3379C158.99 37.0605 158.996 35.7715 159.16 34.4707L159.828 30.1113C160.039 28.7051 160.391 27.3398 160.883 26.0156C161.387 24.6914 162.055 23.4961 162.887 22.4297C163.73 21.3633 164.75 20.5254 165.945 19.916C167.152 19.2949 168.559 19.0078 170.164 19.0547C171.699 19.0898 172.959 19.4355 173.943 20.0918C174.928 20.748 175.684 21.6094 176.211 22.6758C176.738 23.7422 177.072 24.9258 177.213 26.2266C177.354 27.5156 177.336 28.8105 177.16 30.1113ZM172.379 34.4707L173.029 30.041C173.123 29.3496 173.182 28.5938 173.205 27.7734C173.24 26.9414 173.17 26.1445 172.994 25.3828C172.83 24.6211 172.502 23.9883 172.01 23.4844C171.529 22.9805 170.814 22.7109 169.865 22.6758C168.846 22.6406 167.984 22.8457 167.281 23.291C166.578 23.7363 166.004 24.334 165.559 25.084C165.113 25.834 164.768 26.6484 164.521 27.5273C164.275 28.3945 164.088 29.2441 163.959 30.0762L163.326 34.4883C163.232 35.168 163.174 35.918 163.15 36.7383C163.139 37.5586 163.221 38.3438 163.396 39.0938C163.572 39.832 163.9 40.4473 164.381 40.9395C164.873 41.4316 165.588 41.7012 166.525 41.748C167.545 41.7832 168.4 41.584 169.092 41.1504C169.783 40.7168 170.352 40.1367 170.797 39.4102C171.242 38.6836 171.588 37.8867 171.834 37.0195C172.08 36.1406 172.262 35.291 172.379 34.4707ZM184.833 39.1992L191.865 19.4062H194.361L193.464 24.6094L186.011 45H183.374L184.833 39.1992ZM185.396 19.4062L185.449 39.4453L184.728 45H182.021L181.335 19.4062H185.396ZM195.591 38.9883L201.744 19.4062H205.945L197.279 45H194.501L195.591 38.9883ZM195.327 19.4062L196.136 39.6035L195.802 45H193.271L192.269 24.2051L192.902 19.4062H195.327ZM225.782 19.4062L221.335 45H217.257L211.825 26.6484L208.643 45H204.46L208.889 19.4062H212.967L218.434 37.7754L221.634 19.4062H225.782ZM234.404 19.4062L229.94 45H225.791L230.238 19.4062H234.404ZM247.052 23.1328L237.314 45H232.849L245.154 19.4062H247.966L247.052 23.1328ZM248.089 45L245.874 22.7285L246.191 19.4062H248.863L252.326 45H248.089ZM249.83 35.4902L249.179 39.0762H237.595L238.228 35.4902H249.83Z" fill="white"/>
<g clip-path="url(#clip0_772_2419)">
<path d="M64.8 26.23C64.8 28.97 63.66 34.15 56.02 37.94C55.27 38.31 54.54 38.65 53.82 38.97C51.34 40.06 49.34 41.54 47.89 43.37C47.42 43.97 47.37 45.22 47.33 46.43C47.17 51.13 45.27 56.63 43.25 62.44C42.68 64.06 41.16 65.13 39.47 65.13C39.33 65.13 39.19 65.12 39.05 65.11C36.59 64.85 34.06 64.68 31.54 64.6C30.44 64.57 29.41 64.08 28.68 63.27C27.94 62.45 27.58 61.36 27.67 60.27L27.85 58.16C28.1 55.44 28.55 53.15 29.06 51.26C29.06 51.26 26.95 51.51 26.92 51.51C26.92 51.56 26.92 51.61 26.93 51.68C27.06 53.95 27.23 57.38 27.11 60.82C27.04 62.9 25.38 64.57 23.31 64.68C20.7 64.81 18.09 65.04 15.55 65.37C15.38 65.39 15.2 65.4 15.03 65.4C13.25 65.4 11.67 64.22 11.18 62.48C10.89 62.45 10.57 62.43 10.22 62.43C8.68 62.43 7.26 62.74 7.24 62.74C6.96 62.8 6.67 62.83 6.39 62.83C4.62 62.83 3.01 61.66 2.52 59.9C-5.64 30.23 8.32 22.36 12.04 20.83C11.06 17.4 11.4 13.86 11.69 10.83C11.88 8.86 12.06 7 11.85 5.6C11.66 4.32 12.1 3.02 13.04 2.12C13.79 1.4 14.78 1 15.81 1C16.06 1 16.32 1.03 16.57 1.08C18.15 1.39 31.88 4.33 33.6 13.68C34.05 13.52 34.51 13.4 35 13.34C34.53 12.52 34.35 11.53 34.56 10.53C36.41 1.8 49.87 0.24 52.55 0.01C52.66 0 52.77 0 52.88 0C54.27 0 55.56 0.71 56.29 1.91C57.08 3.2 57.08 4.83 56.28 6.11C53.86 9.99 53.47 14.75 53.42 16.82C54.18 16.51 55.05 16.31 56.02 16.31C57.16 16.31 58.32 16.58 59.46 17.11C61.27 17.96 62.86 19.66 63.83 21.79C64.16 22.51 64.26 23.29 64.15 24.03C64.57 24.67 64.81 25.43 64.8 26.23Z" fill="#00F077"/>
<path d="M35.98 23.2198C37.6258 23.2198 38.96 21.8856 38.96 20.2398C38.96 18.594 37.6258 17.2598 35.98 17.2598C34.3342 17.2598 33 18.594 33 20.2398C33 21.8856 34.3342 23.2198 35.98 23.2198Z" fill="#0D0D0D"/>
<path d="M49.43 18.0802C49.43 18.0802 48.96 10.2802 52.88 3.99023C52.88 3.99023 39.8 5.09023 38.47 11.3502C38.47 11.3502 46.88 13.1702 49.43 18.0802Z" fill="#0D0D0D"/>
<path d="M59.21 27.06C58.01 27.06 57.06 25.97 57.31 24.72C57.45 24.04 57.96 23.48 58.62 23.27C59.21 23.08 59.75 23.19 60.19 23.45C59.59 22.13 58.64 21.15 57.77 20.74C55.28 19.58 54.04 21.14 54.04 21.14C49.4 21.14 46.19 21.3 46.14 26.55C46.07 32.87 54.04 30.52 54.04 30.52C54.04 30.52 45.2 36.37 37.99 35.09C25.25 32.83 30.74 21.84 29.73 14.68C28.72 7.52 15.81 5 15.81 5C16.62 10.35 13.49 17.61 17.42 22.85C21.35 28.1 26.03 23.86 26.03 23.86C21.02 31.53 13.99 24.36 13.99 24.36C13.99 24.36 -1.83999 28.94 6.38001 58.82C6.38001 58.82 9.68001 58.08 12.39 58.6L12.82 54.45C14.04 57.12 14.58 59.47 15.03 61.38C17.64 61.04 20.34 60.8 23.11 60.66C23.23 57.25 23.04 53.75 22.94 51.89C22.77 49.07 24.55 47.58 26.4 47.53L35.42 46.49C35.42 46.49 32.63 50 31.84 58.48L31.66 60.59C34.32 60.67 36.93 60.85 39.47 61.12C41.51 55.23 43.2 50.26 43.34 46.36C43.4 44.63 43.45 42.53 44.76 40.87C46.71 38.4 49.33 36.56 52.21 35.29C52.88 35 53.56 34.68 54.25 34.34C59.22 31.88 60.81 28.82 60.81 26.21C60.46 26.71 59.88 27.04 59.22 27.04L59.21 27.06ZM54.82 27.7C53.75 27.7 52.88 26.83 52.88 25.76C52.88 24.69 53.75 23.82 54.82 23.82C55.89 23.82 56.76 24.69 56.76 25.76C56.76 26.83 55.89 27.7 54.82 27.7Z" fill="#0D0D0D"/>
</g>
<defs>
<clipPath id="clip0_772_2419">
<rect width="64.8" height="65.4" fill="white"/>
</clipPath>
</defs>
</svg>
